<svg width="255" height="41" viewBox="0 0 255 41" fill="none" xmlns="http://www.w3.org/2000/svg">
<path d="M241.348 22.2271L240.429 19.1148L239.45 22.2271H241.348ZM240.429 17.6704L241.914 22.644H238.913L240.429 17.6704ZM243.017 23.4829L240.429 14.8213L237.81 23.4829H243.017ZM252.831 32.1048H245.909L244.692 28.5309H236.021L234.729 32.1048H227.927L237.929 7.2616H242.903L252.831 32.1048ZM245.303 32.9387H254.043L243.479 6.42766H237.353L226.705 32.9387H235.306L236.632 29.3698H244.081L245.303 32.9387ZM254.654 33.3556H245L243.778 29.7867H236.901L235.604 33.3556H226.104L237.085 6.01074H243.738L254.654 33.3556Z" fill="#ED1C24"/>
<path d="M216.29 7.26193H222.76V26.8629H225.259V37.4228H219.489V32.5214H202.184V7.26193H208.644V26.8629H216.29V7.26193ZM223.59 6.42823H215.455V26.0244H209.489V6.42823H201.349V33.3551H218.645V38.2565H226.103V26.0244H223.59V6.42823ZM215.038 6.01138H224.007V25.6076H226.52V38.6733H218.227V33.7767H200.932V6.01138H209.906V25.6076H215.038V6.01138Z" fill="#ED1C24"/>
<path d="M173.631 7.26222H179.98V21.3566L189.944 7.26222H195.044V32.1024H188.842V17.8607L178.878 32.1024H173.631V7.26222ZM180.819 6.42855H172.797V32.9407H179.335L188.003 20.4814V32.9407H195.878V6.42855H189.524L180.819 18.7358V6.42855ZM172.377 6.00943H181.239V17.4046L189.335 6.00943H196.293V33.3552H187.588V21.7711L179.565 33.3552H172.377V6.00943Z" fill="#ED1C24"/>
<path d="M145.685 7.26585H152.037V16.6064H160.172V7.26585H166.524V32.106H160.172V22.154H152.037V32.106H145.685V7.26585ZM152.875 6.42838H144.887V32.9391H152.875V22.9516H159.373V32.9391H167.322V6.42838H159.373V15.7335H152.875V6.42838ZM144.47 6.01189H153.292V15.317H158.956V6.01189H167.739V33.3556H158.956V23.3681H153.292V33.3556H144.47V6.01189Z" fill="#ED1C24"/>
<path d="M120.365 19.5697C120.365 20.6329 120.536 21.615 120.878 22.5117C121.224 23.4126 121.699 24.1983 122.306 24.8687C122.913 25.5391 123.631 26.0643 124.456 26.4444C125.276 26.8244 126.157 27.0123 127.097 27.0123C128.26 27.0123 129.388 26.6792 130.478 26.0088C131.568 25.3384 132.444 24.2667 133.103 22.7978H139.758C139.249 24.493 138.553 25.9576 137.668 27.1831C136.779 28.4128 135.779 29.4333 134.663 30.2404C133.547 31.0517 132.363 31.6538 131.107 32.0466C129.854 32.4395 128.602 32.6359 127.362 32.6359C125.46 32.6359 123.699 32.2985 122.079 31.6281C120.459 30.9577 119.048 30.0397 117.852 28.874C116.655 27.7125 115.719 26.3291 115.039 24.7364C114.355 23.1394 114.017 21.4314 114.017 19.6081C114.017 17.8104 114.351 16.128 115.018 14.5567C115.684 12.9853 116.608 11.6275 117.779 10.4746C118.95 9.32168 120.331 8.40787 121.929 7.73748C123.524 7.06709 125.234 6.73403 127.059 6.73403C128.478 6.73403 129.858 6.93902 131.201 7.35748C132.547 7.77594 133.782 8.40361 134.911 9.24053C136.035 10.0732 137.018 11.1151 137.856 12.3534C138.694 13.5959 139.313 15.0392 139.72 16.6831H133.064C132.329 15.0136 131.419 13.8735 130.329 13.2629C129.239 12.6565 128.149 12.3534 127.059 12.3534C126.093 12.3534 125.208 12.5327 124.396 12.8871C123.584 13.2415 122.883 13.7411 122.288 14.3859C121.69 15.0306 121.224 15.7992 120.878 16.6831C120.536 17.5713 120.365 18.5321 120.365 19.5697ZM121.203 19.5483C121.203 17.6183 121.746 16.0725 122.836 14.9026C123.926 13.7369 125.349 13.1519 127.097 13.1519C127.602 13.1519 128.097 13.2074 128.58 13.3227C129.059 13.4337 129.534 13.6514 130.004 13.9674C130.474 14.2834 130.923 14.7275 131.355 15.2954C131.786 15.8676 132.192 16.5935 132.573 17.4816H140.861C140.378 15.5132 139.66 13.8009 138.711 12.3491C137.762 10.9016 136.676 9.69316 135.462 8.73668C134.244 7.77593 132.919 7.06286 131.487 6.59743C130.055 6.132 128.593 5.89713 127.097 5.89713C125.169 5.89713 123.361 6.2558 121.677 6.97743C119.993 7.69906 118.523 8.68116 117.266 9.92373C116.014 11.162 115.018 12.6181 114.282 14.2919C113.547 15.9615 113.18 17.7335 113.18 19.6081C113.18 21.5338 113.547 23.3358 114.282 25.0182C115.018 26.7048 116.031 28.1737 117.326 29.4248C118.617 30.6802 120.126 31.6666 121.848 32.3882C123.571 33.1098 125.422 33.4728 127.401 33.4728C128.692 33.4728 130.012 33.255 131.355 32.8237C132.697 32.3967 133.979 31.7092 135.193 30.7741C136.411 29.839 137.518 28.6477 138.523 27.2044C139.523 25.7612 140.327 24.0147 140.934 21.9609H132.645C131.91 23.5578 131.068 24.6595 130.119 25.2658C129.17 25.8764 128.174 26.1796 127.136 26.1796C125.434 26.1796 124.024 25.5647 122.895 24.3307C121.767 23.101 121.203 21.5082 121.203 19.5483ZM121.622 19.5526C121.622 21.3929 122.139 22.8874 123.182 24.0361C124.22 25.1847 125.537 25.7612 127.136 25.7612C128.123 25.7612 129.055 25.4665 129.927 24.8773C130.803 24.288 131.607 23.1778 132.342 21.5467H141.468C140.81 23.7457 139.955 25.6331 138.903 27.2044C137.847 28.7758 136.689 30.0525 135.424 31.0389C134.154 32.0295 132.829 32.7511 131.449 33.2038C130.068 33.6607 128.717 33.887 127.401 33.887C125.37 33.887 123.472 33.5069 121.699 32.7512C119.925 31.9911 118.369 30.962 117.039 29.6725C115.71 28.3829 114.663 26.8671 113.902 25.1335C113.141 23.3998 112.761 21.5595 112.761 19.6081C112.761 17.6823 113.141 15.8676 113.902 14.1553C114.663 12.4473 115.689 10.9485 116.984 9.65473C118.275 8.36519 119.788 7.34468 121.528 6.59743C123.263 5.85445 125.118 5.47868 127.097 5.47868C128.593 5.47868 130.072 5.72633 131.543 6.21738C133.013 6.7127 134.389 7.46849 135.672 8.48048C136.95 9.49247 138.082 10.7777 139.074 12.3363C140.062 13.8906 140.822 15.748 141.352 17.9001H132.265C131.483 16.1024 130.671 14.9282 129.833 14.3859C128.995 13.8393 128.085 13.5703 127.097 13.5703C125.447 13.5703 124.122 14.1126 123.122 15.1972C122.122 16.2818 121.622 17.7336 121.622 19.5526Z" fill="#ED1C24"/>
<path d="M108.847 32.1058H95.0051V7.26406H108.847V12.8098H101.357V16.647H108.578V22.2662H101.357V26.56H108.847V32.1058ZM94.1683 32.9376H109.684V25.6833H102.194V23.1021H109.415V15.811H102.194V13.6458H109.684V6.42812H94.1683V32.9376ZM110.1 33.3577H93.752V6.01218H110.1V14.0617H102.61V15.391H109.835V23.5221H102.61V25.2674H110.1V33.3577Z" fill="#ED1C24"/>
<path d="M73.7144 32.1023H67.1738L75.0845 7.26443H82.4232L90.3696 32.1023H83.8291L78.7737 14.5559L73.7144 32.1023ZM66.0341 32.9394H74.3617L78.7737 17.5947L83.1818 32.9394H91.5094L83.0705 6.42739H74.4372L66.0341 32.9394ZM74.6675 33.356H65.502L74.1353 6.01085H83.3724L92.0415 33.356H82.8799L78.7737 19.0745L74.6675 33.356Z" fill="#ED1C24"/>
<path d="M45.2459 35.9109C53.9266 36.0517 61.106 29.0398 61.2813 20.2538C61.4527 11.6772 54.4106 4.37211 45.8327 4.21984C36.9957 4.06377 29.7288 10.9578 29.5382 19.6067C29.3363 28.7124 36.6794 35.9147 45.2459 35.9109ZM26.6802 25.9753C24.9197 20.5012 25.5751 15.2099 28.3302 10.3182C31.1235 5.36567 35.5172 2.14516 41.0808 0.881329C45.8213 -0.192169 50.5084 0.447392 54.7955 2.79615C59.6617 5.46086 62.9236 9.57591 64.3755 14.9168C65.8769 20.4213 65.0386 25.7545 62.0319 30.5701C59.4635 34.6813 55.691 37.5326 51.019 38.8878C47.7342 39.8395 44.3809 39.8889 40.9322 39.1238C37.4949 38.3624 34.5721 36.7408 32.0609 34.51C29.5077 32.2374 27.6977 29.2986 26.6802 25.9753Z" fill="#231F20"/>
<path d="M31.421 20.0569C31.4135 20.9887 31.5154 21.9054 31.6816 22.8221C31.7609 23.2823 31.9421 23.4408 32.4066 23.32C35.084 22.6184 36.8891 20.9736 37.5915 18.2989C38.3128 15.5602 37.482 13.2251 35.4239 11.3011C35.035 10.9352 34.7857 10.905 34.4156 11.3841C32.4331 13.9418 31.4399 16.8277 31.421 20.0569ZM59.4036 19.6344C59.396 19.1176 59.279 18.2499 59.1543 17.3747C59.075 16.8164 58.8334 16.6693 58.2896 16.8239C55.6008 17.5784 53.8184 19.276 53.1802 21.9883C52.5533 24.6554 53.3199 26.9642 55.3856 28.824C55.8085 29.2012 56.0464 29.1786 56.3939 28.7296C58.384 26.1531 59.3885 23.2521 59.4036 19.6344ZM55.8236 16.5938C56.6242 16.6089 57.387 16.4391 58.1536 16.1977C58.7125 16.0204 58.7616 15.7639 58.5614 15.2546C57.0283 11.3426 54.3433 8.57747 50.431 7.01569C49.4945 6.64222 49.487 6.64975 49.1811 7.62303C47.7687 12.0933 51.1183 16.6127 55.8236 16.5938ZM41.9494 30.6649C41.9079 25.5872 37.195 22.3052 32.6483 23.9198C32.1347 24.1009 32.0177 24.3423 32.2443 24.8177C32.5426 25.4476 32.7729 26.1154 33.1128 26.7265C34.8386 29.8312 37.3687 32.0079 40.7145 33.2339C41.145 33.3924 41.3679 33.3282 41.5227 32.8717C41.7908 32.072 41.9456 31.2572 41.9494 30.6649ZM45.7295 6.07635C41.8663 6.1103 38.732 7.29486 36.0395 9.66393C35.6278 10.0261 35.6467 10.26 35.9866 10.6485C37.6028 12.4668 39.6156 13.259 42.0363 13.0629C45.1102 12.8101 47.8669 10.0864 48.169 7.02324C48.2181 6.50265 48.0671 6.26875 47.5459 6.23479C46.8473 6.18953 46.1487 6.11407 45.7295 6.07635ZM44.8949 34.0487C48.6599 34.094 51.9793 32.9321 54.8154 30.4197C55.1741 30.1028 55.1703 29.8802 54.872 29.5407C53.3728 27.8205 51.5262 26.9265 49.2113 27.017C45.8541 27.149 42.9464 29.8727 42.6367 33.1924C42.6027 33.5621 42.6556 33.7734 43.0823 33.8564C43.6827 33.9695 44.2756 34.0601 44.8949 34.0487ZM50.3895 20.0758C50.3971 17.2955 48.1803 15.0736 45.4047 15.0773C42.6254 15.0773 40.4087 17.2993 40.4124 20.0758C40.4124 22.8334 42.6631 25.0591 45.4387 25.044C48.1841 25.0327 50.3819 22.8259 50.3895 20.0758ZM60.2684 20.1021C60.2759 28.1789 53.6787 34.8636 45.6653 34.9013C37.2101 34.9391 30.5298 28.375 30.5298 20.0267C30.526 11.8594 37.2101 5.19737 45.4085 5.20114C53.6485 5.20491 60.257 11.833 60.2684 20.1021Z" fill="#ED1C24"/>
<path d="M64.8737 15.206L65.4106 17.8154L64.5614 17.9866L64.0283 15.3771L64.8737 15.206Z" fill="#231F20"/>
<path d="M63.8487 11.9625L64.7769 14.4553L63.9666 14.7593L63.0347 12.2627L63.8487 11.9625Z" fill="#231F20"/>
<path d="M62.1501 8.95195L63.4825 11.2613L62.7346 11.6936L61.3984 9.38426L62.1501 8.95195Z" fill="#231F20"/>
<path d="M59.8203 6.13167L61.6179 8.10136L60.9783 8.68359L59.1807 6.71767L59.8203 6.13167Z" fill="#231F20"/>
<path d="M57.1334 3.73273L59.1916 5.42733L58.6413 6.09387L56.583 4.39928L57.1334 3.73273Z" fill="#231F20"/>
<path d="M54.1365 1.91507L56.4445 3.24594L56.0129 3.99573L53.7012 2.66113L54.1365 1.91507Z" fill="#231F20"/>
<path d="M50.9381 0.699652L53.4326 1.6397L53.1264 2.44922L50.6318 1.50542L50.9381 0.699652Z" fill="#231F20"/>
<path d="M47.4354 0.0003829L50.061 0.460377L49.9125 1.30994L47.2832 0.849906L47.4354 0.0003829Z" fill="#231F20"/>
<path d="M46.8163 0.864502H44.1494V0.00104707H46.8163V0.864502Z" fill="#231F20"/>
<path d="M25.917 15.205L25.3813 17.8161L26.2276 17.9873L26.7632 15.3798L25.917 15.205Z" fill="#231F20"/>
<path d="M26.9432 11.9619L26.0132 14.4559L26.8251 14.7596L27.7551 12.2621L26.9432 11.9619Z" fill="#231F20"/>
<path d="M28.6414 8.95315L27.3071 11.2571L28.0568 11.6907L29.3911 9.38313L28.6414 8.95315Z" fill="#231F20"/>
<path d="M30.969 6.13277L29.1724 8.10019L29.8132 8.68286L31.6099 6.71545L30.969 6.13277Z" fill="#231F20"/>
<path d="M33.6578 3.73013L31.6001 5.42443L32.1498 6.09277L34.2075 4.39847L33.6578 3.73013Z" fill="#231F20"/>
<path d="M36.656 1.91481L34.3447 3.24713L34.7772 3.995L37.0884 2.66267L36.656 1.91481Z" fill="#231F20"/>
<path d="M39.8519 0.697766L37.3569 1.63923L37.6638 2.44934L40.1587 1.50788L39.8519 0.697766Z" fill="#231F20"/>
<path d="M43.355 -5.36442e-06L40.7285 0.458698L40.8791 1.31006L43.5056 0.851355L43.355 -5.36442e-06Z" fill="#231F20"/>
<path d="M25.2866 21.3472V18.6818H26.1534V21.3472H25.2866Z" fill="#231F20"/>
<path d="M25.917 24.8252L25.3813 22.2177L26.2276 22.0429L26.7632 24.6504L25.917 24.8252Z" fill="#231F20"/>
<path d="M26.9432 28.0695L26.0132 25.5719L26.8251 25.2717L27.7551 27.7657L26.9432 28.0695Z" fill="#231F20"/>
<path d="M28.6414 31.0789L27.3071 28.7713L28.0568 28.3378L29.3911 30.6453L28.6414 31.0789Z" fill="#231F20"/>
<path d="M30.969 33.896L29.1724 31.9286L29.8132 31.3459L31.6099 33.3133L30.969 33.896Z" fill="#231F20"/>
<path d="M33.6578 36.2981L31.6001 34.6038L32.1498 33.939L34.2075 35.6334L33.6578 36.2981Z" fill="#231F20"/>
<path d="M36.656 38.1162L34.3447 36.7839L34.7772 36.0361L37.0884 37.3684L36.656 38.1162Z" fill="#231F20"/>
<path d="M39.8519 39.3309L37.3569 38.3894L37.6638 37.5794L40.1587 38.5208L39.8519 39.3309Z" fill="#231F20"/>
<path d="M43.355 40.032L40.7285 39.5696L40.8791 38.7183L43.5056 39.177L43.355 40.032Z" fill="#231F20"/>
<path d="M43.9751 39.165H46.6412V40.0319H43.9751V39.165Z" fill="#231F20"/>
<path d="M65.5032 21.3456V18.6825H64.6387V21.3456H65.5032Z" fill="#231F20"/>
<path d="M64.8737 24.8259L65.4106 22.2165L64.5614 22.0415L64.0283 24.651L64.8737 24.8259Z" fill="#231F20"/>
<path d="M63.8487 28.0707L64.7769 25.5741L63.9666 25.2701L63.0347 27.7667L63.8487 28.0707Z" fill="#231F20"/>
<path d="M62.1501 31.0787L63.4825 28.7732L62.7346 28.3409L61.3984 30.6465L62.1501 31.0787Z" fill="#231F20"/>
<path d="M59.8203 33.8967L61.6179 31.9308L60.9783 31.3486L59.1807 33.3145L59.8203 33.8967Z" fill="#231F20"/>
<path d="M57.1334 36.2991L59.1916 34.6045L58.6413 33.9379L56.583 35.6325L57.1334 36.2991Z" fill="#231F20"/>
<path d="M54.1365 38.1184L56.4445 36.7838L56.0129 36.0378L53.7012 37.3686L54.1365 38.1184Z" fill="#231F20"/>
<path d="M50.9381 39.3324L53.4326 38.3886L53.1264 37.5828L50.6318 38.5229L50.9381 39.3324Z" fill="#231F20"/>
<path d="M47.4354 40.0328L50.061 39.5728L49.9125 38.7196L47.2832 39.1796L47.4354 40.0328Z" fill="#231F20"/>
<path d="M7.60537 32.1017H1.25511V7.26327H7.60537V18.5441L14.713 7.26327H21.3691L13.1165 19.6452L21.8988 32.1017H14.4499L7.60537 21.279V32.1017ZM0.419552 32.9399H8.44094V24.1277L14.0303 32.9399H23.4988L14.105 19.6452L22.9264 6.42857H14.2579L8.44094 15.6954V6.42857H0.419552V32.9399ZM8.86052 33.3555H0V6.00945H8.86052V14.2143L14.0303 6.00945H23.6873L14.6383 19.6452L24.2953 33.3555H13.7637L8.86052 25.5697V33.3555Z" fill="#ED1C24"/>
</svg>
