<svg width="24" height="24" viewBox="0 0 24 24" fill="none" xmlns="http://www.w3.org/2000/svg">
<path d="M6.86034 12.0826C7.93607 14.3041 9.73238 16.0958 11.9566 17.1658C12.1207 17.2435 12.3021 17.2771 12.4831 17.2634C12.6641 17.2496 12.8385 17.189 12.9889 17.0874L16.2557 14.9051C16.4001 14.8073 16.5669 14.7475 16.7405 14.7315C16.9142 14.7155 17.0891 14.7438 17.2489 14.8137L23.3644 17.4402C23.5734 17.5272 23.748 17.6805 23.8613 17.8765C23.9747 18.0724 24.0204 18.3002 23.9916 18.5248C23.7978 20.0376 23.0593 21.428 21.9145 22.4358C20.7696 23.4436 19.2968 23.9997 17.7715 24C13.0582 24 8.53798 22.1276 5.20517 18.7948C1.87235 15.462 0 10.9418 0 6.22846C0.000343755 4.70323 0.556425 3.2304 1.56419 2.08554C2.57196 0.940676 3.96235 0.202244 5.4752 0.00841418C5.69975 -0.0204295 5.92755 0.0253412 6.12353 0.138679C6.31951 0.252016 6.4728 0.426634 6.55979 0.635645L9.18632 6.76421C9.25462 6.92148 9.2832 7.09312 9.26952 7.26403C9.25585 7.43494 9.20035 7.59986 9.10792 7.74426L6.92568 11.0634C6.82852 11.2135 6.7715 11.386 6.76006 11.5645C6.74862 11.7429 6.78315 11.9213 6.86034 12.0826Z" fill="#ED1C24"/>
</svg>
