<svg width="12" height="12" viewBox="0 0 12 12" fill="none" xmlns="http://www.w3.org/2000/svg">
<path d="M6.25383 10.0017L9.1613 11.9209C9.53627 12.1668 9.99778 11.801 9.88817 11.3511L9.04593 7.90854C9.02315 7.81312 9.02677 7.71294 9.05637 7.61957C9.08597 7.52619 9.14034 7.44341 9.21322 7.38076L11.8207 5.11968C12.1611 4.8258 11.988 4.23204 11.5438 4.20205L8.14022 3.97414C8.04736 3.96853 7.95807 3.93491 7.88329 3.87739C7.8085 3.81987 7.75145 3.74096 7.7191 3.65028L6.44997 0.327631C6.41637 0.231612 6.35517 0.148666 6.27467 0.0900533C6.19417 0.0314405 6.09828 0 6 0C5.90172 0 5.80583 0.0314405 5.72533 0.0900533C5.64483 0.148666 5.58363 0.231612 5.55003 0.327631L4.2809 3.65028C4.24855 3.74096 4.1915 3.81987 4.11671 3.87739C4.04193 3.93491 3.95264 3.96853 3.85978 3.97414L0.456183 4.20205C0.0119858 4.23204 -0.161078 4.8258 0.179281 5.11968L2.78678 7.38076C2.85966 7.44341 2.91403 7.52619 2.94363 7.61957C2.97323 7.71294 2.97685 7.81312 2.95407 7.90854L2.17529 11.0992C2.0426 11.639 2.59641 12.0768 3.04061 11.783L5.74617 10.0017C5.82204 9.95153 5.91009 9.92489 6 9.92489C6.08991 9.92489 6.17796 9.95153 6.25383 10.0017Z" fill="#F8CC46"/>
</svg>
